<svg xmlns="http://www.w3.org/2000/svg"
     width="32" height="32"
     viewBox="0 0 32 32">
  <rect width="32" height="32" rx="6" fill="#241b19"/>
  <g transform="translate(16 16)" fill="#bc9778">
    <rect x="-1" y="-15" width="2" height="4" rx="1"/>
    <rect x="-1" y="-15" width="2" height="4" rx="1" transform="rotate(45)"/>
    <rect x="-1" y="-15" width="2" height="4" rx="1" transform="rotate(90)"/>
    <rect x="-1" y="-15" width="2" height="4" rx="1" transform="rotate(135)"/>
    <rect x="-1" y="-15" width="2" height="4" rx="1" transform="rotate(180)"/>
    <rect x="-1" y="-15" width="2" height="4" rx="1" transform="rotate(225)"/>
    <rect x="-1" y="-15" width="2" height="4" rx="1" transform="rotate(270)"/>
    <rect x="-1" y="-15" width="2" height="4" rx="1" transform="rotate(315)"/>
    <circle r="10"/>
    <circle r="6" fill="#241b19"/>
  </g>
  <path d="
    M18 10
    C14 9, 12 11, 14 13
    C16 15, 20 14, 18 18
    C16 21, 12 20, 12 20
  "
  fill="none"
  stroke="#241b19"
  stroke-width="2.2"
  stroke-linecap="round"/>
</svg>
